<svg xmlns="http://www.w3.org/2000/svg" xmlns:xlink="http://www.w3.org/1999/xlink" width="1000" zoomAndPan="magnify" viewBox="0 0 750 749.999995" height="1000" preserveAspectRatio="xMidYMid meet" version="1.0"><defs><clipPath id="5a1826d0b7"><path d="M 24 0 L 725.90625 0 L 725.90625 750 L 24 750 Z M 24 0 " clip-rule="nonzero"/></clipPath></defs><g clip-path="url(#5a1826d0b7)"><path fill="#ff3131" d="M 282.230469 459.816406 C 323.054688 425.289062 369.878906 401.871094 412.199219 369.894531 C 473.882812 323.058594 490.992188 254.003906 417.152344 241.992188 C 411.902344 232.988281 404.996094 224.730469 394.792969 217.824219 C 440.566406 214.222656 481.839844 238.992188 485.742188 296.1875 C 494.746094 214.523438 419.40625 187.5 357.273438 210.167969 C 386.988281 222.929688 403.347656 242.445312 413.703125 264.960938 C 357.121094 254.902344 331.757812 269.316406 373.628906 300.089844 C 313.148438 303.691406 267.074219 316.003906 282.53125 351.28125 C 241.261719 368.246094 206.441406 343.324219 206.890625 307.597656 C 214.695312 319.15625 225.5 324.410156 238.109375 326.511719 C 233.90625 317.054688 233.304688 306.695312 235.558594 295.585938 C 251.164062 315.253906 267.824219 313.601562 283.28125 294.535156 C 297.238281 277.421875 302.492188 253.851562 323.054688 241.542969 C 299.640625 235.839844 280.882812 250.101562 252.066406 247.699219 C 215.898438 244.695312 200.289062 261.960938 202.238281 295.738281 C 187.832031 288.53125 175.824219 278.621094 166.96875 265.261719 C 167.121094 274.871094 169.523438 284.628906 173.273438 294.535156 C 146.410156 276.972656 129.449219 250.398438 150.613281 248.597656 C 142.207031 238.539062 133.800781 242.59375 132.902344 254.453125 C 118.042969 205.515625 157.367188 196.957031 192.785156 227.882812 C 190.832031 221.726562 187.382812 216.023438 181.226562 210.617188 C 197.285156 208.214844 210.492188 210.917969 221.75 217.523438 C 220.398438 212.570312 217.246094 207.765625 211.695312 202.8125 C 232.40625 202.210938 249.214844 212.121094 266.921875 211.519531 C 279.53125 211.070312 288.234375 198.757812 300.542969 193.804688 C 290.035156 187.351562 280.582031 188.101562 260.019531 197.558594 C 242.160156 205.816406 231.65625 199.058594 233.304688 184.496094 C 228.953125 187.800781 226.402344 192.304688 226.253906 198.457031 C 207.941406 187.800781 208.242188 167.535156 240.507812 153.121094 C 276.527344 137.210938 307.746094 120.546875 326.804688 93.976562 C 328.007812 107.035156 326.207031 119.945312 321.851562 132.40625 C 354.421875 92.773438 425.257812 96.976562 486.339844 72.359375 C 475.835938 68.753906 465.179688 65.753906 454.222656 63.351562 C 458.726562 42.632812 468.332031 23.570312 462.777344 0 C 459.777344 24.019531 441.464844 40.382812 427.210938 58.097656 C 422.554688 63.800781 418.503906 69.65625 415.203125 75.960938 C 387.289062 81.816406 363.125 88.722656 344.816406 97.429688 C 352.917969 80.765625 370.929688 67.554688 390.890625 54.644531 C 385.488281 54.34375 379.933594 54.195312 374.53125 54.195312 C 181.226562 53.59375 24.09375 210.769531 24.09375 404.574219 C 24.09375 511.007812 71.371094 606.335938 146.257812 670.585938 C 142.355469 652.871094 144.160156 633.957031 149.410156 614.140625 C 154.964844 592.523438 145.507812 582.917969 126.449219 594.925781 C 130.652344 573.308594 144.757812 556.34375 158.117188 538.480469 C 176.726562 513.261719 170.574219 503.953125 146.859375 508.605469 C 159.015625 485.339844 183.328125 471.828125 206.589844 457.414062 C 225.5 445.855469 222.800781 431.746094 199.539062 432.496094 C 217.847656 416.132812 241.710938 403.972656 274.726562 396.765625 C 302.644531 390.613281 314.046875 375.449219 278.480469 370.648438 C 308.496094 341.972656 433.664062 347.527344 431.109375 276.070312 C 462.179688 324.109375 365.074219 372.75 285.683594 424.839844 C 167.269531 502.453125 148.660156 607.835938 207.640625 705.714844 C 195.484375 695.804688 187.082031 683.347656 177.476562 671.488281 C 165.621094 656.777344 155.863281 656.777344 146.558594 671.035156 C 193.085938 710.96875 249.964844 738.742188 312.847656 750 C 294.839844 742.644531 278.179688 732.136719 263.773438 718.625 C 196.835938 656.175781 180.027344 546.585938 282.230469 459.816406 Z M 299.492188 250.699219 C 291.6875 258.65625 287.484375 269.015625 281.480469 278.171875 C 278.179688 269.914062 273.078125 262.859375 265.421875 257.605469 C 277.878906 257.757812 288.234375 251.449219 299.492188 250.699219 Z M 725.71875 404.574219 C 725.71875 496.898438 690 580.964844 631.617188 643.714844 C 618.859375 648.820312 611.355469 644.164062 620.8125 625.851562 C 628.917969 609.9375 635.671875 593.574219 626.214844 573.457031 C 621.863281 591.472656 611.355469 591.921875 609.554688 568.503906 C 608.207031 550.789062 601.902344 534.878906 589.296875 521.066406 C 588.695312 540.28125 582.242188 542.382812 571.734375 523.917969 C 564.230469 510.558594 553.425781 499.300781 535.117188 492.394531 C 543.820312 506.65625 536.765625 510.410156 518.609375 509.957031 C 504.5 509.507812 490.691406 512.058594 477.035156 516.5625 C 558.527344 513.710938 607.003906 575.859375 576.6875 644.164062 C 592.296875 548.839844 441.617188 489.390625 347.214844 614.140625 C 366.726562 640.414062 394.941406 648.96875 428.859375 645.816406 C 436.8125 608.136719 478.085938 591.324219 494.445312 609.636719 C 499.097656 581.414062 482.136719 570.007812 459.777344 567.003906 C 519.207031 561.148438 524.910156 607.835938 495.945312 639.210938 C 425.40625 715.472656 261.21875 652.421875 325.453125 539.683594 C 356.371094 485.339844 407.398438 462.96875 451.671875 418.835938 C 465.628906 434.449219 464.128906 452.011719 455.875 470.328125 C 485.738281 455.164062 504.800781 428.441406 520.707031 394.816406 C 536.617188 361.1875 552.675781 361.1875 563.933594 382.355469 C 569.183594 353.382812 561.082031 324.109375 549.824219 293.484375 C 539.019531 264.210938 544.570312 244.246094 568.132812 260.308594 C 564.53125 237.941406 545.621094 219.625 504.949219 198.007812 C 481.238281 185.398438 475.382812 171.585938 494.894531 163.03125 C 462.328125 147.71875 427.507812 143.066406 389.390625 152.222656 C 421.355469 119.046875 476.136719 113.941406 509.453125 80.3125 C 518.308594 71.308594 525.660156 60.199219 530.765625 45.785156 C 531.816406 59.746094 530.914062 74.007812 527.914062 88.570312 C 644.976562 145.464844 725.71875 265.710938 725.71875 404.574219 Z M 725.71875 404.574219 " fill-opacity="1" fill-rule="evenodd"/></g></svg>